<svg width="400" height="400" viewBox="0 0 400 400" fill="none" xmlns="http://www.w3.org/2000/svg">
  <circle cx="20" cy="20" r="4" fill="#7C3AED" fill-opacity="0.3"/>
  <circle cx="60" cy="20" r="4" fill="#7C3AED" fill-opacity="0.3"/>
  <circle cx="100" cy="20" r="4" fill="#7C3AED" fill-opacity="0.3"/>
  <circle cx="140" cy="20" r="4" fill="#7C3AED" fill-opacity="0.3"/>
  <circle cx="180" cy="20" r="4" fill="#7C3AED" fill-opacity="0.3"/>
  <circle cx="220" cy="20" r="4" fill="#7C3AED" fill-opacity="0.3"/>
  <circle cx="260" cy="20" r="4" fill="#7C3AED" fill-opacity="0.3"/>
  <circle cx="300" cy="20" r="4" fill="#7C3AED" fill-opacity="0.3"/>
  <circle cx="340" cy="20" r="4" fill="#7C3AED" fill-opacity="0.3"/>
  <circle cx="380" cy="20" r="4" fill="#7C3AED" fill-opacity="0.3"/>
  
  <circle cx="20" cy="60" r="4" fill="#7C3AED" fill-opacity="0.3"/>
  <circle cx="60" cy="60" r="4" fill="#7C3AED" fill-opacity="0.3"/>
  <circle cx="100" cy="60" r="4" fill="#7C3AED" fill-opacity="0.3"/>
  <circle cx="140" cy="60" r="4" fill="#7C3AED" fill-opacity="0.3"/>
  <circle cx="180" cy="60" r="4" fill="#7C3AED" fill-opacity="0.3"/>
  <circle cx="220" cy="60" r="4" fill="#7C3AED" fill-opacity="0.3"/>
  <circle cx="260" cy="60" r="4" fill="#7C3AED" fill-opacity="0.3"/>
  <circle cx="300" cy="60" r="4" fill="#7C3AED" fill-opacity="0.3"/>
  <circle cx="340" cy="60" r="4" fill="#7C3AED" fill-opacity="0.3"/>
  <circle cx="380" cy="60" r="4" fill="#7C3AED" fill-opacity="0.3"/>
  
  <circle cx="20" cy="100" r="4" fill="#7C3AED" fill-opacity="0.3"/>
  <circle cx="60" cy="100" r="4" fill="#7C3AED" fill-opacity="0.3"/>
  <circle cx="100" cy="100" r="4" fill="#7C3AED" fill-opacity="0.3"/>
  <circle cx="140" cy="100" r="4" fill="#7C3AED" fill-opacity="0.3"/>
  <circle cx="180" cy="100" r="4" fill="#7C3AED" fill-opacity="0.3"/>
  <circle cx="220" cy="100" r="4" fill="#7C3AED" fill-opacity="0.3"/>
  <circle cx="260" cy="100" r="4" fill="#7C3AED" fill-opacity="0.3"/>
  <circle cx="300" cy="100" r="4" fill="#7C3AED" fill-opacity="0.3"/>
  <circle cx="340" cy="100" r="4" fill="#7C3AED" fill-opacity="0.3"/>
  <circle cx="380" cy="100" r="4" fill="#7C3AED" fill-opacity="0.3"/>
  
  <circle cx="20" cy="140" r="4" fill="#7C3AED" fill-opacity="0.3"/>
  <circle cx="60" cy="140" r="4" fill="#7C3AED" fill-opacity="0.3"/>
  <circle cx="100" cy="140" r="4" fill="#7C3AED" fill-opacity="0.3"/>
  <circle cx="140" cy="140" r="4" fill="#7C3AED" fill-opacity="0.3"/>
  <circle cx="180" cy="140" r="4" fill="#7C3AED" fill-opacity="0.3"/>
  <circle cx="220" cy="140" r="4" fill="#7C3AED" fill-opacity="0.3"/>
  <circle cx="260" cy="140" r="4" fill="#7C3AED" fill-opacity="0.3"/>
  <circle cx="300" cy="140" r="4" fill="#7C3AED" fill-opacity="0.3"/>
  <circle cx="340" cy="140" r="4" fill="#7C3AED" fill-opacity="0.3"/>
  <circle cx="380" cy="140" r="4" fill="#7C3AED" fill-opacity="0.3"/>
  
  <circle cx="20" cy="180" r="4" fill="#7C3AED" fill-opacity="0.3"/>
  <circle cx="60" cy="180" r="4" fill="#7C3AED" fill-opacity="0.3"/>
  <circle cx="100" cy="180" r="4" fill="#7C3AED" fill-opacity="0.3"/>
  <circle cx="140" cy="180" r="4" fill="#7C3AED" fill-opacity="0.3"/>
  <circle cx="180" cy="180" r="4" fill="#7C3AED" fill-opacity="0.3"/>
  <circle cx="220" cy="180" r="4" fill="#7C3AED" fill-opacity="0.3"/>
  <circle cx="260" cy="180" r="4" fill="#7C3AED" fill-opacity="0.3"/>
  <circle cx="300" cy="180" r="4" fill="#7C3AED" fill-opacity="0.3"/>
  <circle cx="340" cy="180" r="4" fill="#7C3AED" fill-opacity="0.3"/>
  <circle cx="380" cy="180" r="4" fill="#7C3AED" fill-opacity="0.3"/>
  
  <circle cx="20" cy="220" r="4" fill="#7C3AED" fill-opacity="0.3"/>
  <circle cx="60" cy="220" r="4" fill="#7C3AED" fill-opacity="0.3"/>
  <circle cx="100" cy="220" r="4" fill="#7C3AED" fill-opacity="0.3"/>
  <circle cx="140" cy="220" r="4" fill="#7C3AED" fill-opacity="0.3"/>
  <circle cx="180" cy="220" r="4" fill="#7C3AED" fill-opacity="0.3"/>
  <circle cx="220" cy="220" r="4" fill="#7C3AED" fill-opacity="0.3"/>
  <circle cx="260" cy="220" r="4" fill="#7C3AED" fill-opacity="0.3"/>
  <circle cx="300" cy="220" r="4" fill="#7C3AED" fill-opacity="0.3"/>
  <circle cx="340" cy="220" r="4" fill="#7C3AED" fill-opacity="0.3"/>
  <circle cx="380" cy="220" r="4" fill="#7C3AED" fill-opacity="0.3"/>
  
  <circle cx="20" cy="260" r="4" fill="#7C3AED" fill-opacity="0.3"/>
  <circle cx="60" cy="260" r="4" fill="#7C3AED" fill-opacity="0.3"/>
  <circle cx="100" cy="260" r="4" fill="#7C3AED" fill-opacity="0.3"/>
  <circle cx="140" cy="260" r="4" fill="#7C3AED" fill-opacity="0.3"/>
  <circle cx="180" cy="260" r="4" fill="#7C3AED" fill-opacity="0.3"/>
  <circle cx="220" cy="260" r="4" fill="#7C3AED" fill-opacity="0.3"/>
  <circle cx="260" cy="260" r="4" fill="#7C3AED" fill-opacity="0.3"/>
  <circle cx="300" cy="260" r="4" fill="#7C3AED" fill-opacity="0.3"/>
  <circle cx="340" cy="260" r="4" fill="#7C3AED" fill-opacity="0.3"/>
  <circle cx="380" cy="260" r="4" fill="#7C3AED" fill-opacity="0.3"/>
  
  <circle cx="20" cy="300" r="4" fill="#7C3AED" fill-opacity="0.3"/>
  <circle cx="60" cy="300" r="4" fill="#7C3AED" fill-opacity="0.3"/>
  <circle cx="100" cy="300" r="4" fill="#7C3AED" fill-opacity="0.3"/>
  <circle cx="140" cy="300" r="4" fill="#7C3AED" fill-opacity="0.3"/>
  <circle cx="180" cy="300" r="4" fill="#7C3AED" fill-opacity="0.3"/>
  <circle cx="220" cy="300" r="4" fill="#7C3AED" fill-opacity="0.3"/>
  <circle cx="260" cy="300" r="4" fill="#7C3AED" fill-opacity="0.3"/>
  <circle cx="300" cy="300" r="4" fill="#7C3AED" fill-opacity="0.3"/>
  <circle cx="340" cy="300" r="4" fill="#7C3AED" fill-opacity="0.3"/>
  <circle cx="380" cy="300" r="4" fill="#7C3AED" fill-opacity="0.3"/>
  
  <circle cx="20" cy="340" r="4" fill="#7C3AED" fill-opacity="0.3"/>
  <circle cx="60" cy="340" r="4" fill="#7C3AED" fill-opacity="0.3"/>
  <circle cx="100" cy="340" r="4" fill="#7C3AED" fill-opacity="0.3"/>
  <circle cx="140" cy="340" r="4" fill="#7C3AED" fill-opacity="0.3"/>
  <circle cx="180" cy="340" r="4" fill="#7C3AED" fill-opacity="0.3"/>
  <circle cx="220" cy="340" r="4" fill="#7C3AED" fill-opacity="0.3"/>
  <circle cx="260" cy="340" r="4" fill="#7C3AED" fill-opacity="0.3"/>
  <circle cx="300" cy="340" r="4" fill="#7C3AED" fill-opacity="0.3"/>
  <circle cx="340" cy="340" r="4" fill="#7C3AED" fill-opacity="0.3"/>
  <circle cx="380" cy="340" r="4" fill="#7C3AED" fill-opacity="0.3"/>
  
  <circle cx="20" cy="380" r="4" fill="#7C3AED" fill-opacity="0.3"/>
  <circle cx="60" cy="380" r="4" fill="#7C3AED" fill-opacity="0.3"/>
  <circle cx="100" cy="380" r="4" fill="#7C3AED" fill-opacity="0.3"/>
  <circle cx="140" cy="380" r="4" fill="#7C3AED" fill-opacity="0.3"/>
  <circle cx="180" cy="380" r="4" fill="#7C3AED" fill-opacity="0.3"/>
  <circle cx="220" cy="380" r="4" fill="#7C3AED" fill-opacity="0.3"/>
  <circle cx="260" cy="380" r="4" fill="#7C3AED" fill-opacity="0.3"/>
  <circle cx="300" cy="380" r="4" fill="#7C3AED" fill-opacity="0.3"/>
  <circle cx="340" cy="380" r="4" fill="#7C3AED" fill-opacity="0.3"/>
  <circle cx="380" cy="380" r="4" fill="#7C3AED" fill-opacity="0.3"/>
</svg>
