<svg width="160" height="40" viewBox="0 0 160 40" fill="none" xmlns="http://www.w3.org/2000/svg">
  <rect width="40" height="40" rx="8" fill="url(#paint0_linear)"/>
  <path d="M12.25 14.5C12.25 13.5335 13.0335 12.75 14 12.75H26C26.9665 12.75 27.75 13.5335 27.75 14.5V25.5C27.75 26.4665 26.9665 27.25 26 27.25H14C13.0335 27.25 12.25 26.4665 12.25 25.5V14.5Z" stroke="white" stroke-width="1.5"/>
  <path d="M12.25 17.75H27.75" stroke="white" stroke-width="1.5"/>
  <path d="M16.75 22.25H23.25" stroke="white" stroke-width="1.5" stroke-linecap="round"/>
  <circle cx="15.5" cy="15.5" r="0.75" fill="white"/>
  <circle cx="18.5" cy="15.5" r="0.75" fill="white"/>
  <path d="M52.336 27V13.8H55.472V24.216H61.904V27H52.336ZM67.8089 27.24C66.6889 27.24 65.6889 27.024 64.8089 26.592C63.9289 26.144 63.2329 25.52 62.7209 24.72C62.2089 23.92 61.9529 22.992 61.9529 21.936C61.9529 20.88 62.2089 19.952 62.7209 19.152C63.2329 18.352 63.9289 17.736 64.8089 17.304C65.6889 16.856 66.6889 16.632 67.8089 16.632C68.9289 16.632 69.9289 16.856 70.8089 17.304C71.6889 17.736 72.3849 18.352 72.8969 19.152C73.4089 19.952 73.6649 20.88 73.6649 21.936C73.6649 22.992 73.4089 23.92 72.8969 24.72C72.3849 25.52 71.6889 26.144 70.8089 26.592C69.9289 27.024 68.9289 27.24 67.8089 27.24ZM67.8089 24.648C68.5369 24.648 69.1369 24.4 69.6089 23.904C70.0969 23.392 70.3409 22.736 70.3409 21.936C70.3409 21.136 70.0969 20.488 69.6089 19.992C69.1369 19.48 68.5369 19.224 67.8089 19.224C67.0809 19.224 66.4729 19.48 65.9849 19.992C65.5129 20.488 65.2769 21.136 65.2769 21.936C65.2769 22.736 65.5129 23.392 65.9849 23.904C66.4729 24.4 67.0809 24.648 67.8089 24.648ZM84.6538 16.872L80.1418 27H76.6698L72.1578 16.872H75.7018L78.4058 23.784L81.1578 16.872H84.6538ZM91.3865 27.24C90.2665 27.24 89.2665 27.024 88.3865 26.592C87.5065 26.144 86.8105 25.52 86.2985 24.72C85.7865 23.92 85.5305 22.992 85.5305 21.936C85.5305 20.88 85.7865 19.952 86.2985 19.152C86.8105 18.352 87.5065 17.736 88.3865 17.304C89.2665 16.856 90.2665 16.632 91.3865 16.632C92.5065 16.632 93.5065 16.856 94.3865 17.304C95.2665 17.736 95.9625 18.352 96.4745 19.152C96.9865 19.952 97.2425 20.88 97.2425 21.936C97.2425 22.992 96.9865 23.92 96.4745 24.72C95.9625 25.52 95.2665 26.144 94.3865 26.592C93.5065 27.024 92.5065 27.24 91.3865 27.24ZM91.3865 24.648C92.1145 24.648 92.7145 24.4 93.1865 23.904C93.6745 23.392 93.9185 22.736 93.9185 21.936C93.9185 21.136 93.6745 20.488 93.1865 19.992C92.7145 19.48 92.1145 19.224 91.3865 19.224C90.6585 19.224 90.0505 19.48 89.5625 19.992C89.0905 20.488 88.8545 21.136 88.8545 21.936C88.8545 22.736 89.0905 23.392 89.5625 23.904C90.0505 24.4 90.6585 24.648 91.3865 24.648ZM103.738 27.24C102.618 27.24 101.618 27.024 100.738 26.592C99.8578 26.144 99.1618 25.52 98.6498 24.72C98.1378 23.92 97.8818 22.992 97.8818 21.936C97.8818 20.88 98.1378 19.952 98.6498 19.152C99.1618 18.352 99.8578 17.736 100.738 17.304C101.618 16.856 102.618 16.632 103.738 16.632C104.858 16.632 105.858 16.856 106.738 17.304C107.618 17.736 108.314 18.352 108.826 19.152C109.338 19.952 109.594 20.88 109.594 21.936C109.594 22.992 109.338 23.92 108.826 24.72C108.314 25.52 107.618 26.144 106.738 26.592C105.858 27.024 104.858 27.24 103.738 27.24ZM103.738 24.648C104.466 24.648 105.066 24.4 105.538 23.904C106.026 23.392 106.27 22.736 106.27 21.936C106.27 21.136 106.026 20.488 105.538 19.992C105.066 19.48 104.466 19.224 103.738 19.224C103.01 19.224 102.402 19.48 101.914 19.992C101.442 20.488 101.206 21.136 101.206 21.936C101.206 22.736 101.442 23.392 101.914 23.904C102.402 24.4 103.01 24.648 103.738 24.648ZM115.583 27.24C114.463 27.24 113.463 27.024 112.583 26.592C111.703 26.144 111.007 25.52 110.495 24.72C109.983 23.92 109.727 22.992 109.727 21.936C109.727 20.88 109.983 19.952 110.495 19.152C111.007 18.352 111.703 17.736 112.583 17.304C113.463 16.856 114.463 16.632 115.583 16.632C116.703 16.632 117.703 16.856 118.583 17.304C119.463 17.736 120.159 18.352 120.671 19.152C121.183 19.952 121.439 20.88 121.439 21.936C121.439 22.992 121.183 23.92 120.671 24.72C120.159 25.52 119.463 26.144 118.583 26.592C117.703 27.024 116.703 27.24 115.583 27.24ZM115.583 24.648C116.311 24.648 116.911 24.4 117.383 23.904C117.871 23.392 118.115 22.736 118.115 21.936C118.115 21.136 117.871 20.488 117.383 19.992C116.911 19.48 116.311 19.224 115.583 19.224C114.855 19.224 114.247 19.48 113.759 19.992C113.287 20.488 113.051 21.136 113.051 21.936C113.051 22.736 113.287 23.392 113.759 23.904C114.247 24.4 114.855 24.648 115.583 24.648ZM122.972 27V16.872H126.296V27H122.972ZM124.652 15.72C124.044 15.72 123.54 15.536 123.14 15.168C122.756 14.784 122.564 14.32 122.564 13.776C122.564 13.232 122.756 12.776 123.14 12.408C123.54 12.024 124.044 11.832 124.652 11.832C125.26 11.832 125.756 12.016 126.14 12.384C126.524 12.752 126.716 13.2 126.716 13.728C126.716 14.288 126.524 14.76 126.14 15.144C125.772 15.528 125.276 15.72 124.652 15.72ZM134.37 16.632C135.874 16.632 137.066 17.064 137.946 17.928C138.842 18.776 139.29 20 139.29 21.6V27H135.966V22.08C135.966 21.28 135.762 20.68 135.354 20.28C134.946 19.864 134.37 19.656 133.626 19.656C132.882 19.656 132.298 19.864 131.874 20.28C131.466 20.68 131.262 21.28 131.262 22.08V27H127.938V16.872H131.262V18.36C131.638 17.864 132.13 17.48 132.738 17.208C133.346 16.824 133.826 16.632 134.37 16.632Z" fill="#1E293B"/>
  <defs>
    <linearGradient id="paint0_linear" x1="0" y1="0" x2="40" y2="40" gradientUnits="userSpaceOnUse">
      <stop stop-color="#7C3AED"/>
      <stop offset="1" stop-color="#8B5CF6"/>
    </linearGradient>
  </defs>
</svg>
